<?xml version="1.0" encoding="UTF-8" standalone="no"?>
<svg
   xmlns:dc="http://purl.org/dc/elements/1.1/"
   xmlns:cc="http://creativecommons.org/ns#"
   xmlns:rdf="http://www.w3.org/1999/02/22-rdf-syntax-ns#"
   xmlns:svg="http://www.w3.org/2000/svg"
   xmlns="http://www.w3.org/2000/svg"
   xmlns:sodipodi="http://sodipodi.sourceforge.net/DTD/sodipodi-0.dtd"
   xmlns:inkscape="http://www.inkscape.org/namespaces/inkscape"
   sodipodi:docname="werkplaats switch lasercut.svg"
   inkscape:version="1.0 (4035a4f, 2020-05-01)"
   id="svg11598"
   version="1.1"
   viewBox="0 0 210 297"
   height="297mm"
   width="210mm">
  <style
     id="style11600" />
  <defs
     id="defs11592">
    <inkscape:path-effect
       effect="offset"
       id="path-effect911"
       is_visible="true"
       lpeversion="1"
       linejoin_type="miter"
       unit="mm"
       offset="3"
       miter_limit="4"
       attempt_force_join="true"
       update_on_knot_move="true" />
    <inkscape:path-effect
       update_on_knot_move="true"
       attempt_force_join="true"
       miter_limit="4"
       offset="0"
       unit="mm"
       linejoin_type="miter"
       lpeversion="1"
       is_visible="true"
       id="path-effect907"
       effect="offset" />
  </defs>
  <sodipodi:namedview
     id="base"
     pagecolor="#ffffff"
     bordercolor="#666666"
     borderopacity="1.0"
     inkscape:pageopacity="0.0"
     inkscape:pageshadow="2"
     inkscape:zoom="0.98994949"
     inkscape:cx="130.73967"
     inkscape:cy="162.89291"
     inkscape:document-units="mm"
     inkscape:current-layer="g12927"
     inkscape:document-rotation="0"
     showgrid="false"
     inkscape:snap-bbox="true"
     inkscape:bbox-nodes="true"
     inkscape:window-width="1440"
     inkscape:window-height="855"
     inkscape:window-x="0"
     inkscape:window-y="23"
     inkscape:window-maximized="0" />
  <metadata
     id="metadata11595">
    <rdf:RDF>
      <cc:Work
         rdf:about="">
        <dc:format>image/svg+xml</dc:format>
        <dc:type
           rdf:resource="http://purl.org/dc/dcmitype/StillImage" />
        <dc:title></dc:title>
      </cc:Work>
    </rdf:RDF>
  </metadata>
  <g
     inkscape:groupmode="layer"
     id="layer7"
     inkscape:label="eps32"
     style="display:inline" />
  <g
     inkscape:label="Layer 1"
     inkscape:groupmode="layer"
     id="layer1">
    <g
       id="g12213"
       transform="translate(-58.724893,-40)">
      <g
         transform="translate(0,-2.6458334)"
         id="g12199">
        <circle
           style="fill:none;stroke:#ff0000;stroke-width:0.3;stroke-miterlimit:4;stroke-dasharray:none"
           id="path11602"
           cx="94.383263"
           cy="120.11267"
           r="13.7" />
        <g
           aria-label="Werkplaats"
           transform="scale(0.97373909,1.0269691)"
           id="text12175"
           style="font-size:10.3053px;line-height:1.25;font-family:'OCR A Extended';-inkscape-font-specification:'OCR A Extended';stroke-width:0.257635">
          <path
             d="m 71.724613,135.72692 v 2.81282 l 0.246563,0.41262 h 0.352232 l 0.256626,-0.42268 v -4.9866 q 0,-0.17611 0.125797,-0.30191 0.130829,-0.13083 0.306945,-0.13083 0.171084,0 0.296881,0.1258 0.125797,0.12579 0.125797,0.29688 v 5.13252 q 0,0.0956 -0.105669,0.26669 l -0.392487,0.64911 q -0.120766,0.21637 -0.367328,0.21637 h -0.795038 q -0.377391,0 -0.483061,-0.34216 -0.115733,0.34216 -0.462933,0.34216 h -0.744719 q -0.322041,0 -0.462933,-0.23649 l -0.362296,-0.60886 q -0.100638,-0.16605 -0.100638,-0.28682 v -5.12246 q 0,-0.17611 0.125797,-0.30191 0.130829,-0.13083 0.306945,-0.13083 0.166052,0 0.286818,0.13083 0.125797,0.1258 0.125797,0.30191 v 5.00673 l 0.246562,0.40255 h 0.362296 l 0.26669,-0.42268 v -2.80276 q 0,-0.17612 0.120765,-0.29688 0.125797,-0.1258 0.301913,-0.1258 0.176116,0 0.296881,0.1258 0.125797,0.12076 0.125797,0.29688 z"
             style="stroke-width:0.257635"
             id="path12940" />
          <path
             d="m 79.6448,136.53202 v 1.02147 q 0,0.17109 -0.125797,0.29688 -0.125797,0.1258 -0.296882,0.1258 h -2.988939 v 0.24656 q 0,0.21638 0.18618,0.36733 l 0.246562,0.20631 q 0.201275,0.15599 0.382423,0.15599 h 2.173774 q 0.171085,0 0.296882,0.12579 0.125797,0.12077 0.125797,0.29689 0,0.17108 -0.130829,0.29688 -0.125797,0.12579 -0.29185,0.12579 h -2.229124 q -0.221403,0 -0.467966,-0.0906 -0.24153,-0.0956 -0.357263,-0.19624 l -0.377392,-0.33211 q -0.176116,-0.14089 -0.296881,-0.39248 -0.115733,-0.2516 -0.115733,-0.46294 v -1.93727 q 0,-0.16606 0.125797,-0.44784 0.130829,-0.28179 0.327072,-0.43778 l 0.352232,-0.27675 q 0.3472,-0.28178 0.769879,-0.28178 h 1.187524 q 0.447838,0 0.845357,0.37236 l 0.317009,0.30191 q 0.342168,0.30694 0.342168,0.9158 z m -3.401554,-0.0654 v 0.65414 h 2.566261 v -0.58873 q 0,-0.2365 -0.145925,-0.36229 l -0.246562,-0.21638 q -0.191212,-0.15598 -0.342168,-0.15598 h -1.061728 q -0.196243,0 -0.357264,0.13586 l -0.246562,0.2063 q -0.166052,0.1258 -0.166052,0.32708 z"
             style="stroke-width:0.257635"
             id="path12942" />
          <path
             d="m 81.607235,139.37504 v -4.01042 q 0,-0.17611 0.120765,-0.30191 0.125797,-0.13083 0.301913,-0.13083 0.176116,0 0.296881,0.1258 0.125797,0.1258 0.125797,0.30694 v 0.52835 l 0.689369,-0.58873 q 0.42771,-0.36229 0.835293,-0.36229 h 0.618921 q 0.523316,0 0.895676,0.37236 0.372359,0.37235 0.372359,0.89567 v 0.22644 q 0,0.18114 -0.125797,0.30694 -0.120765,0.1258 -0.296881,0.1258 -0.176116,0 -0.301913,-0.12077 -0.120765,-0.12579 -0.120765,-0.30191 v -0.2365 q 0,-0.17612 -0.125797,-0.29688 -0.120766,-0.1258 -0.296882,-0.1258 h -0.548475 q -0.176116,0 -0.392487,0.18618 l -1.202621,1.0416 v 2.35996 q 0,0.17611 -0.125797,0.30191 -0.125797,0.12076 -0.296881,0.12076 -0.176116,0 -0.301913,-0.12076 -0.120765,-0.1258 -0.120765,-0.30191 z"
             style="stroke-width:0.257635"
             id="path12944" />
          <path
             d="m 87.826644,139.37504 v -5.83196 q 0,-0.18115 0.120765,-0.30694 0.125797,-0.1258 0.301913,-0.1258 0.176116,0 0.296881,0.1258 0.125797,0.12579 0.125797,0.30694 v 3.45187 l 2.274412,-1.93727 q 0.145925,-0.12077 0.317009,-0.12077 0.181148,0 0.301913,0.13083 0.120765,0.1258 0.120765,0.30192 0,0.18618 -0.130829,0.29688 l -1.771223,1.50453 2.183838,1.91715 q 0.130829,0.10567 0.130829,0.27675 0,0.16605 -0.120765,0.30192 -0.120766,0.13082 -0.296882,0.13082 -0.176115,0 -0.311976,-0.11573 l -2.254285,-1.9574 -0.442806,0.37236 v 1.2781 q 0,0.17611 -0.125797,0.30191 -0.120765,0.12076 -0.296881,0.12076 -0.176116,0 -0.301913,-0.12076 -0.120765,-0.1258 -0.120765,-0.30191 z"
             style="stroke-width:0.257635"
             id="path12946" />
          <path
             d="m 94.901474,139.31465 v 1.87186 q 0,0.18115 -0.125797,0.30695 -0.120765,0.1258 -0.296881,0.1258 -0.176116,0 -0.306945,-0.1258 -0.125797,-0.1258 -0.125797,-0.30695 v -6.02819 q 0,-0.17109 0.125797,-0.29688 0.125797,-0.1258 0.306945,-0.1258 0.171084,0 0.296881,0.1258 0.125797,0.12579 0.125797,0.29688 v 0.27172 q 0.61389,-0.68434 1.212684,-0.68434 h 0.196244 q 0.447838,0 0.825229,0.33211 l 0.704464,0.60885 q 0.462933,0.40256 0.462933,1.02148 v 1.31835 q 0,0.62395 -0.498156,1.05166 l -0.689369,0.59377 q -0.342168,0.31197 -0.865484,0.31197 H 96.06384 q -0.493125,0 -0.835293,-0.34216 z m 1.192557,-0.18618 h 0.216371 q 0.155988,0 0.332104,-0.15598 l 0.659177,-0.57867 q 0.166052,-0.13083 0.166052,-0.35727 v -1.36364 q 0,-0.20127 -0.186179,-0.35726 l -0.709496,-0.60886 q -0.120765,-0.10567 -0.261658,-0.10567 H 96.06384 q -0.140893,0 -0.367328,0.23147 l -0.628986,0.62395 q -0.166052,0.16606 -0.166052,0.37236 v 1.08186 q 0,0.19624 0.18618,0.38242 l 0.608858,0.60886 q 0.226435,0.22643 0.397519,0.22643 z"
             style="stroke-width:0.257635"
             id="path12948" />
          <path
             d="m 103.67708,139.79771 h -2.5562 q -0.17611,0 -0.30191,-0.12579 -0.12076,-0.13083 -0.12076,-0.30695 0,-0.17108 0.12076,-0.29688 0.1258,-0.1258 0.30191,-0.1258 h 0.84536 v -4.98659 h -0.85542 q -0.17612,0 -0.30191,-0.12077 -0.12077,-0.1258 -0.12077,-0.30191 0,-0.17612 0.12077,-0.29688 0.12579,-0.1258 0.30191,-0.1258 h 1.28816 q 0.17109,0 0.29688,0.1258 0.1258,0.12579 0.1258,0.29688 v 5.40927 h 0.85542 q 0.17109,0 0.29688,0.1258 0.1258,0.1258 0.1258,0.29688 0,0.17612 -0.1258,0.30695 -0.12076,0.12579 -0.29688,0.12579 z"
             style="stroke-width:0.257635"
             id="path12950" />
          <path
             d="m 107.74284,136.74839 h 1.65549 q 0.13586,0 0.39249,0.0604 l -0.0101,-0.59879 q 0,-0.17612 -0.1258,-0.29688 -0.12077,-0.1258 -0.29688,-0.1258 h -1.60517 q -0.17109,0 -0.29688,-0.12579 -0.1258,-0.1258 -0.1258,-0.29689 0,-0.17611 0.12076,-0.29688 0.1258,-0.12579 0.30192,-0.12579 h 1.60517 q 0.52331,0 0.89064,0.36732 0.37236,0.36733 0.38746,0.90071 l 0.10567,3.16506 q 0,0.17611 -0.1258,0.30191 -0.1258,0.12076 -0.29688,0.12076 -0.18115,0 -0.30695,-0.12076 -0.12579,-0.1258 -0.12579,-0.30191 l -0.71453,0.42267 h -1.42906 q -0.53338,0 -0.90574,-0.37236 -0.37236,-0.37235 -0.37236,-0.90573 v -0.49313 q 0,-0.52835 0.37236,-0.90071 0.3774,-0.37739 0.90574,-0.37739 z m 2.11339,1.64543 -0.0251,-0.35727 q -0.005,-0.18114 -0.1258,-0.30191 -0.12077,-0.12076 -0.29688,-0.12076 h -1.66556 q -0.17611,0 -0.30191,0.12579 -0.12077,0.12077 -0.12077,0.29688 v 0.473 q 0,0.17109 0.1258,0.29688 0.1258,0.1258 0.29688,0.1258 h 1.19256 z"
             style="stroke-width:0.257635"
             id="path12952" />
          <path
             d="m 113.96225,136.74839 h 1.65549 q 0.13586,0 0.39249,0.0604 l -0.0101,-0.59879 q 0,-0.17612 -0.1258,-0.29688 -0.12077,-0.1258 -0.29688,-0.1258 h -1.60517 q -0.17109,0 -0.29688,-0.12579 -0.1258,-0.1258 -0.1258,-0.29689 0,-0.17611 0.12076,-0.29688 0.1258,-0.12579 0.30192,-0.12579 h 1.60517 q 0.52331,0 0.89064,0.36732 0.37236,0.36733 0.38746,0.90071 l 0.10567,3.16506 q 0,0.17611 -0.1258,0.30191 -0.1258,0.12076 -0.29688,0.12076 -0.18115,0 -0.30695,-0.12076 -0.12579,-0.1258 -0.12579,-0.30191 l -0.71453,0.42267 h -1.42906 q -0.53338,0 -0.90574,-0.37236 -0.37236,-0.37235 -0.37236,-0.90573 v -0.49313 q 0,-0.52835 0.37236,-0.90071 0.37739,-0.37739 0.90574,-0.37739 z m 2.11339,1.64543 -0.0252,-0.35727 q -0.005,-0.18114 -0.12579,-0.30191 -0.12077,-0.12076 -0.29688,-0.12076 h -1.66556 q -0.17611,0 -0.30191,0.12579 -0.12077,0.12077 -0.12077,0.29688 v 0.473 q 0,0.17109 0.1258,0.29688 0.1258,0.1258 0.29688,0.1258 h 1.19256 z"
             style="stroke-width:0.257635"
             id="path12954" />
          <path
             d="m 121.8925,139.79771 h -0.84535 q -0.52332,0 -0.90071,-0.37236 -0.37739,-0.37235 -0.37739,-0.89567 v -2.74238 h -0.43274 q -0.17612,0 -0.30192,-0.12076 -0.12076,-0.12077 -0.12076,-0.30192 0,-0.17611 0.12076,-0.29688 0.1258,-0.12579 0.30192,-0.12579 h 0.4428 v -1.03657 q 0,-0.17612 0.12077,-0.29688 0.12579,-0.1258 0.30191,-0.1258 0.16605,0 0.29185,0.1258 0.13083,0.12579 0.13083,0.29688 v 1.03657 h 1.70078 q 0.17108,0 0.29688,0.12579 0.12579,0.1258 0.12579,0.29688 0,0.17612 -0.12579,0.30192 -0.1258,0.12076 -0.29688,0.12076 h -1.71085 v 2.74238 q 0,0.17108 0.1258,0.29688 0.13083,0.1258 0.30695,0.1258 h 0.82523 q 0.33713,0 0.44783,-0.3623 0.11071,-0.36733 0.42771,-0.36733 0.18618,0 0.30192,0.1258 0.12076,0.12077 0.12076,0.30695 0,0.38242 -0.36229,0.76484 -0.35727,0.37739 -0.91581,0.37739 z"
             style="stroke-width:0.257635"
             id="path12956" />
          <path
             d="m 126.32559,134.94195 h 1.93728 q 0.45287,0 0.80007,0.27172 0.3472,0.26669 0.3472,0.52331 0,0.18115 -0.13083,0.29688 -0.1258,0.11574 -0.28178,0.11574 -0.20128,0 -0.36733,-0.18115 -0.16605,-0.18115 -0.3472,-0.18115 h -1.91212 q -0.28178,0 -0.28178,0.2365 0,0.16605 0.18618,0.25159 l 2.24925,0.99632 q 0.34217,0.15095 0.55854,0.48809 0.2214,0.33211 0.2214,0.73969 0,0.54344 -0.38745,0.92083 -0.38243,0.37739 -0.87052,0.37739 h -1.71084 q -0.44281,0 -0.82523,-0.26669 -0.37739,-0.26669 -0.37739,-0.51828 0,-0.16605 0.12076,-0.29185 0.1258,-0.13083 0.32204,-0.13083 0.16102,0 0.34217,0.18115 0.18618,0.18115 0.53338,0.18115 h 1.57498 q 0.18618,0 0.31198,-0.1409 0.1258,-0.14592 0.1258,-0.3321 0,-0.28682 -0.28179,-0.41261 l -2.26938,-1.02148 q -0.32707,-0.14592 -0.50319,-0.42267 -0.17611,-0.27676 -0.17611,-0.56358 0,-0.45287 0.31197,-0.78497 0.31701,-0.3321 0.77994,-0.3321 z"
             style="stroke-width:0.257635"
             id="path12958" />
        </g>
      </g>
      <g
         style="font-size:10.5833px;line-height:1.25;font-family:'OCR A Extended';-inkscape-font-specification:'OCR A Extended';stroke-width:0.264583"
         id="text12171"
         aria-label="Space">
        <path
           id="path12929"
           style="stroke-width:0.264583"
           d="m 81.163326,80.608504 h 2.258253 q 0.41341,0 0.780312,0.351399 0.372069,0.346231 0.372069,0.842323 0,0.186035 -0.134359,0.315225 -0.12919,0.129191 -0.289387,0.129191 -0.222208,0 -0.30489,-0.09819 -0.08268,-0.103353 -0.160196,-0.377237 -0.07235,-0.273884 -0.330728,-0.273884 h -2.144565 q -0.155029,0 -0.155029,0.09819 0,0.06201 0.06718,0.144693 l 3.219432,4.118599 q 0.232543,0.299722 0.232543,0.640786 0,0.387572 -0.28422,0.682126 -0.279052,0.294555 -0.625283,0.294555 h -2.340934 q -0.465087,0 -0.811318,-0.351398 -0.341063,-0.356567 -0.341063,-0.780312 0,-0.485757 0.454751,-0.485757 0.175699,0 0.299722,0.129191 0.124023,0.124023 0.124023,0.294554 0,0.139526 0.09302,0.232544 0.09818,0.09302 0.242878,0.09302 h 2.160068 q 0.139526,0 0.139526,-0.10852 0,-0.05168 -0.06718,-0.134359 l -3.214264,-4.118598 q -0.227376,-0.294555 -0.227376,-0.640786 0,-0.403075 0.289387,-0.697629 0.289388,-0.299723 0.69763,-0.299723 z" />
        <path
           id="path12931"
           style="stroke-width:0.264583"
           d="m 87.44716,86.980188 v 1.922357 q 0,0.186035 -0.129191,0.315225 -0.124023,0.129191 -0.30489,0.129191 -0.180867,0 -0.315225,-0.129191 -0.12919,-0.12919 -0.12919,-0.315225 v -6.190817 q 0,-0.175699 0.12919,-0.30489 0.129191,-0.12919 0.315225,-0.12919 0.1757,0 0.30489,0.12919 0.129191,0.129191 0.129191,0.30489 v 0.279052 q 0.630451,-0.702797 1.245398,-0.702797 h 0.201538 q 0.459918,0 0.84749,0.341063 l 0.723468,0.625283 q 0.475422,0.41341 0.475422,1.049028 v 1.353919 q 0,0.640785 -0.511595,1.080034 l -0.707965,0.60978 q -0.351399,0.320392 -0.888832,0.320392 h -0.191202 q -0.506428,0 -0.857826,-0.351398 z m 1.224728,-0.191202 h 0.222208 q 0.160196,0 0.341063,-0.160197 l 0.676959,-0.594277 q 0.170532,-0.134358 0.170532,-0.366901 v -1.400427 q 0,-0.206705 -0.191202,-0.366902 L 89.162812,83.275 q -0.124023,-0.108521 -0.268716,-0.108521 h -0.253214 q -0.144694,0 -0.377237,0.237711 l -0.645953,0.640786 Q 87.44716,84.215508 87.44716,84.42738 v 1.11104 q 0,0.201538 0.191202,0.39274 l 0.625283,0.625283 q 0.232543,0.232543 0.408243,0.232543 z" />
        <path
           id="path12933"
           style="stroke-width:0.264583"
           d="m 94.247757,84.344698 h 1.700149 q 0.139526,0 0.403075,0.06201 l -0.01033,-0.614948 q 0,-0.180867 -0.129191,-0.30489 -0.124023,-0.12919 -0.30489,-0.12919 h -1.648473 q -0.175699,0 -0.30489,-0.129191 -0.129191,-0.129191 -0.129191,-0.30489 0,-0.180867 0.124023,-0.30489 0.129191,-0.129191 0.310058,-0.129191 h 1.648473 q 0.537433,0 0.91467,0.377237 0.382404,0.377237 0.397907,0.925005 l 0.10852,3.250438 q 0,0.180867 -0.12919,0.310057 -0.129191,0.124023 -0.30489,0.124023 -0.186035,0 -0.315226,-0.124023 -0.12919,-0.12919 -0.12919,-0.310057 l -0.733803,0.43408 h -1.467606 q -0.547769,0 -0.930173,-0.382404 -0.382404,-0.382405 -0.382404,-0.930173 v -0.506427 q 0,-0.542601 0.382404,-0.925006 0.387572,-0.387572 0.930173,-0.387572 z m 2.170403,1.689814 -0.02584,-0.366901 q -0.0052,-0.186035 -0.129191,-0.310058 -0.124023,-0.124023 -0.30489,-0.124023 h -1.710484 q -0.180867,0 -0.310058,0.129191 -0.124023,0.124023 -0.124023,0.30489 v 0.485757 q 0,0.175699 0.129191,0.30489 0.12919,0.12919 0.30489,0.12919 h 1.224727 z" />
        <path
           id="path12935"
           style="stroke-width:0.264583"
           d="m 103.2911,87.47628 h -1.85517 q -0.49093,0 -0.83716,-0.294555 L 99.756447,86.447922 Q 99.353372,86.112027 99.353372,85.53842 v -1.13171 q -0.02067,-0.552936 0.454751,-0.961179 l 0.759637,-0.656288 q 0.36691,-0.299723 0.78548,-0.299723 h 1.9482 q 0.18087,0 0.30489,0.129191 0.12919,0.124023 0.12919,0.30489 0,0.186035 -0.12919,0.310058 -0.12402,0.124023 -0.30489,0.124023 h -1.86551 q -0.1757,0 -0.3359,0.139526 l -0.69763,0.594277 q -0.17053,0.144693 -0.17053,0.387572 v 1.059363 q 0,0.170532 0.13436,0.289387 l 0.76481,0.651121 q 0.14469,0.129191 0.3824,0.129191 h 1.77766 q 0.1757,0 0.30489,0.129191 0.12919,0.124023 0.12919,0.30489 0,0.180867 -0.12919,0.310057 -0.12402,0.124023 -0.30489,0.124023 z" />
        <path
           id="path12937"
           style="stroke-width:0.264583"
           d="m 110.10204,84.12249 v 1.049029 q 0,0.175699 -0.1292,0.30489 -0.12919,0.12919 -0.30489,0.12919 h -3.06957 v 0.253214 q 0,0.222208 0.19121,0.377237 l 0.25321,0.211872 q 0.20671,0.160197 0.39274,0.160197 h 2.23241 q 0.1757,0 0.30489,0.129191 0.1292,0.124023 0.1292,0.30489 0,0.175699 -0.13436,0.30489 -0.12919,0.12919 -0.29973,0.12919 h -2.28925 q -0.22738,0 -0.48059,-0.09302 -0.24805,-0.09819 -0.3669,-0.201538 l -0.38758,-0.341063 q -0.18086,-0.144693 -0.30489,-0.403075 -0.11885,-0.258381 -0.11885,-0.475421 v -1.989537 q 0,-0.170531 0.12919,-0.459919 0.13436,-0.289387 0.33589,-0.449583 l 0.36174,-0.28422 q 0.35656,-0.289387 0.79065,-0.289387 h 1.21955 q 0.45992,0 0.86817,0.382405 l 0.32556,0.310057 q 0.3514,0.315226 0.3514,0.940508 z m -3.49332,-0.06718 v 0.671792 h 2.63549 V 84.12249 q 0,-0.242878 -0.14986,-0.372069 l -0.25322,-0.222208 q -0.19637,-0.160196 -0.35139,-0.160196 h -1.09037 q -0.20154,0 -0.3669,0.139526 l -0.25322,0.211873 q -0.17053,0.12919 -0.17053,0.335894 z" />
      </g>
      <circle
         style="fill:none;stroke:#ff0000;stroke-width:0.3;stroke-miterlimit:4;stroke-dasharray:none;stroke-opacity:1"
         id="circle12181"
         cx="94.383263"
         cy="64.020996"
         r="13.7" />
    </g>
    <path
       inkscape:connector-curvature="0"
       d="m 0,113 v 10 h 3 v 6 H 0 v 6 h 3 v 6 H 0 v 6 h 3 v 6 H 0 v 6 h 3 v 6 H 0 v 6 h 3 v 6 H 0 v 6 h 3 v 6 H 0 v 6 h 3 v 6 H 0 v 6 h 3 v 6 H 0 v 6 4 h 10.5 v -3 h 6 v 3 h 6 v -3 h 6 v 0 h 6 v 0 h 6 v 0 h 6 v 0 h 6 v 3 h 6 v -3 h 6 v 3 h 6 4.5 v -10 h -3 v -6 h 3 v -6 h -3 v -6 h 3 v -6 h -3 v -6 h 3 v -6 h -3 v -6 h 3 v -6 h -3 v -6 h 3 v -6 h -3 v -6 h 3 v -6 h -3 v -6 h 3 v -6 h -3 v -6 h 3 v -6 -4 H 64.5 v 3 h -6 v -3 h -6 v 3 h -6 v -3 h -6 v 3 h -6 v -3 h -6 v 3 h -6 v -3 h -6 v 3 h -6 v -3 h -6 z"
       id="front_outsideCutPath"
       stroke="#FF0000"
       stroke-width="0.1"
       style="font-size:12px;fill:none;fill-rule:evenodd;stroke:#ff0000;stroke-width:0.1;stroke-linecap:round"
       vector-effect="non-scaling-stroke"
       sodipodi:nodetypes="ccccccccccccccccccccccccccccccccccccccccccccccccccccccccccccccccccccccccccccccccccccccccccccccccccccccccccccccccc" />
    <path
       inkscape:connector-curvature="0"
       d="m 81,113 v 10 h -3 v 6 h 3 v 6 h -3 v 6 h 3 v 6 h -3 v 6 h 3 v 6 h -3 v 6 h 3 v 6 h -3 v 6 h 3 v 6 h -3 v 6 h 3 v 6 h -3 v 6 h 3 v 6 h -3 v 6 h 3 v 6 4 h 6.5 v -3 h 6 v 3 h 6 v -3 h 6 v 3 h 6 v -3 h 6 v 3 h 6 0.5 v -10 h 3 v -6 h -3 v -6 h 3 v -6 h -3 v -6 h 3 v -6 h -3 v -6 h 3 v -6 h -3 v -6 h 3 v -6 h -3 v -6 h 3 v -6 h -3 v -6 h 3 v -6 h -3 v -6 h 3 v -6 h -3 v -6 -4 h -6.5 v 3 h -6 v -3 h -6 v 3 h -6 v -3 h -6 v 3 h -6 v -3 h -6 z"
       id="left_outsideCutPath"
       stroke="#FF0000"
       stroke-width="0.1"
       style="font-size:12px;fill:none;fill-rule:evenodd;stroke:#ff0000;stroke-width:0.1;stroke-linecap:round"
       vector-effect="non-scaling-stroke" />
    <path
       inkscape:connector-curvature="0"
       d="m 0,0 v 10 h 3 v 6 H 0 v 6 h 3 v 6 H 0 v 6 h 3 v 6 H 0 v 6 h 3 v 6 H 0 v 6 h 3 v 6 H 0 v 6 h 3 v 6 H 0 v 6 h 3 v 6 H 0 v 6 h 3 v 6 H 0 v 6 4 h 10.5 v -3 h 6 v 3 h 6 v -3 h 6 v 3 h 6 v -3 h 6 v 3 h 6 v -3 h 6 v 3 h 6 v -3 h 6 v 3 h 6 4.5 v -10 h -3 v -6 h 3 v -6 h -3 v -6 h 3 v -6 h -3 v -6 h 3 v -6 h -3 v -6 h 3 v -6 h -3 v -6 h 3 v -6 h -3 v -6 h 3 v -6 h -3 v -6 h 3 v -6 h -3 v -6 h 3 V 4 0 H 64.5 v 3 h -6 V 0 h -6 v 3 h -6 V 0 h -6 v 3 h -6 V 0 h -6 v 3 h -6 V 0 h -6 v 3 h -6 V 0 h -6 z"
       id="back_outsideCutPath"
       stroke="#FF0000"
       stroke-width="0.1"
       style="font-size:12px;fill:none;fill-rule:evenodd;stroke:#ff0000;stroke-width:0.1;stroke-linecap:round"
       vector-effect="non-scaling-stroke" />
    <path
       inkscape:connector-curvature="0"
       d="m 81,0 v 10 h -3 v 6 h 3 v 6 h -3 v 6 h 3 v 6 h -3 v 6 h 3 v 6 h -3 v 6 h 3 v 6 h -3 v 6 h 3 v 6 h -3 v 6 h 3 v 6 h -3 v 6 h 3 v 6 h -3 v 6 h 3 v 6 4 h 6.5 v -3 h 6 v 3 h 6 v -3 h 6 v 3 h 6 v -3 h 6 v 3 h 6 0.5 v -10 h 3 v -6 h -3 v -6 h 3 v -6 h -3 v -6 h 3 v -6 h -3 v -6 h 3 v -6 h -3 v -6 h 3 v -6 h -3 v -6 h 3 v -6 h -3 v -6 h 3 v -6 h -3 v -6 h 3 v -6 h -3 V 4 0 h -6.5 v 3 h -6 V 0 h -6 v 3 h -6 V 0 h -6 v 3 h -6 V 0 h -6 z"
       id="right_outsideCutPath"
       stroke="#FF0000"
       stroke-width="0.1"
       style="font-size:12px;fill:none;fill-rule:evenodd;stroke:#ff0000;stroke-width:0.1;stroke-linecap:round"
       vector-effect="non-scaling-stroke" />
    <path
       inkscape:connector-curvature="0"
       d="m 133,125 v 6.5 h -3 v 6 h 3 v 6 h -3 v 6 h 3 v 6 h -3 v 6 h 3 v 6 0.5 h 7.5 v 3 h 6 v -3 h 6 v 3 h 6 v -3 h 6 v 3 h 6 v -3 h 6 v 3 h 6 v -3 h 6 v 3 h 6 v -3 h 6 1.5 v -6.5 h 3 v -6 h -3 v -6 h 3 v -6 h -3 v -6 h 3 v -6 h -3 v -6 -0.5 h -7.5 v -3 h -6 v 3 h -6 v -3 h -6 v 3 h -6 v -3 h -6 v 3 h -6 v -3 h -6 v 3 h -6 v -3 h -6 v 3 h -6 z"
       id="bottom_outsideCutPath"
       stroke="#FF0000"
       stroke-width="0.1"
       style="font-size:12px;fill:none;fill-rule:evenodd;stroke:#ff0000;stroke-width:0.1;stroke-linecap:round"
       vector-effect="non-scaling-stroke" />
    <g
       id="g12927"
       transform="translate(0,7.4083335)">
      <path
         transform="matrix(0.26458333,0,0,0.26458333,0,-7.4083335)"
         d="M 39.685547 859.49609 L 39.685547 870.83398 L 17.007812 870.83398 L 11.337891 870.83398 L 11.337891 895.40234 L 0 895.40234 L 0 918.07812 L 11.337891 918.07812 L 11.337891 940.75586 L 0 940.75586 L 0 963.43359 L 11.337891 963.43359 L 11.337891 986.10938 L 0 986.10938 L 0 1008.7871 L 11.337891 1008.7871 L 11.337891 1031.4648 L 11.337891 1033.3535 L 39.685547 1033.3535 L 39.685547 1044.6934 L 62.361328 1044.6934 L 62.361328 1033.3535 L 85.039062 1033.3535 L 85.039062 1044.6934 L 107.7168 1044.6934 L 107.7168 1033.3535 L 130.39453 1033.3535 L 130.39453 1044.6934 L 153.07031 1044.6934 L 153.07031 1033.3535 L 175.74805 1033.3535 L 175.74805 1044.6934 L 198.42578 1044.6934 L 198.42578 1033.3535 L 221.10156 1033.3535 L 221.10156 1044.6934 L 243.7793 1044.6934 L 243.7793 1033.3535 L 266.45703 1033.3535 L 272.12695 1033.3535 L 272.12695 1008.7871 L 283.46484 1008.7871 L 283.46484 986.10938 L 272.12695 986.10938 L 272.12695 963.43359 L 283.46484 963.43359 L 283.46484 940.75586 L 272.12695 940.75586 L 272.12695 918.07812 L 283.46484 918.07812 L 283.46484 895.40234 L 272.12695 895.40234 L 272.12695 872.72461 L 272.12695 870.83398 L 243.7793 870.83398 L 243.7793 859.49609 L 221.10156 859.49609 L 221.10156 870.83398 L 198.42578 870.83398 L 198.42578 859.49609 L 175.74805 859.49609 L 168.18945 859.49609 L 168.18945 883.30273 C 168.18945 892.90364 159.16158 897.29102 153.07031 897.29102 L 130.39453 897.29102 C 124.30326 897.29102 115.27539 892.90364 115.27539 883.30273 L 115.27539 859.49609 L 107.7168 859.49609 L 85.039062 859.49609 L 85.039062 870.83398 L 62.361328 870.83398 L 62.361328 859.49609 L 39.685547 859.49609 z "
         style="font-size:12px;fill:none;fill-rule:evenodd;stroke:#ff0000;stroke-width:0.377953;stroke-linecap:round"
         id="top_outsideCutPath" />
      <path
         inkscape:path-effect="#path-effect907"
         sodipodi:type="rect"
         d="m 34.5,223 h 6 c 0.554,0 1,0.3129 1,0.70158 v 2.59684 C 41.5,226.6871 41.054,227 40.5,227 h -6 c -0.554,0 -1,-0.3129 -1,-0.70158 v -2.59684 C 33.5,223.3129 33.946,223 34.5,223 Z"
         rx="1"
         ry="0.70157957"
         y="223"
         x="33.5"
         height="4"
         width="8"
         id="rect12380"
         style="fill:none;stroke:#ff0000;stroke-width:0.368405;stroke-miterlimit:4;stroke-dasharray:none" />
    </g>
    <path
       id="rect12440"
       style="fill:none;stroke:#ff0000;stroke-width:0.273553;stroke-miterlimit:4;stroke-dasharray:none;stroke-opacity:1"
       d="m 16.036172,133.39392 c -1.108,0 -1.999878,0.89188 -1.999878,1.99988 v 7.28276 a 3.4999998,3.4077968 0 0 0 -1.500167,2.79621 3.4999998,3.4077968 0 0 0 3.500045,3.40806 3.4999998,3.4077968 0 0 0 3.500043,-3.40806 3.4999998,3.4077968 0 0 0 -1.499649,-2.79621 v -7.28276 c 0,-1.108 -0.892394,-1.99988 -2.000394,-1.99988 z"
       inkscape:connector-curvature="0" />
    <path
       d="m 56.03617,133.39392 c -1.108,0 -1.999878,0.89187 -1.999878,1.99987 v 7.28276 a 3.4999998,3.4077968 0 0 0 -1.500167,2.79622 3.4999998,3.4077968 0 0 0 3.500045,3.40806 3.4999998,3.4077968 0 0 0 3.500044,-3.40806 3.4999998,3.4077968 0 0 0 -1.49965,-2.79622 v -7.28276 c 0,-1.108 -0.892395,-1.99987 -2.000394,-1.99987 z"
       style="fill:none;stroke:#ff0000;stroke-width:0.273553;stroke-miterlimit:4;stroke-dasharray:none;stroke-opacity:1"
       id="path12447"
       inkscape:connector-curvature="0" />
    <path
       style="fill:none;stroke:#0000ff;stroke-width:0.15531300000000001px;stroke-linecap:butt;stroke-linejoin:miter;stroke-opacity:1"
       d="M 16.036171,133.39392 V 126.0303"
       id="path12451"
       inkscape:connector-curvature="0" />
    <path
       style="fill:none;stroke:#0000ff;stroke-width:0.15531300000000001px;stroke-linecap:butt;stroke-linejoin:miter;stroke-opacity:1"
       d="M 56.03617,133.39392 V 126.0303"
       id="path12453"
       inkscape:connector-curvature="0" />
    <text
       xml:space="preserve"
       style="font-size:10.5833px;line-height:1.25;font-family:'OCR A Extended';-inkscape-font-specification:'OCR A Extended';stroke-width:0.264583"
       x="24.588797"
       y="182.2778"
       id="text12457"><tspan
         sodipodi:role="line"
         id="tspan12455"
         x="24.588797"
         y="182.2778"
         style="stroke-width:0.264583" /></text>
    <g
       id="g12744"
       transform="translate(-33.94323,10.958051)"
       style="stroke:#0000ff;stroke-opacity:1">
      <g
         inkscape:label="Hershey Text"
         style="fill:none;stroke:#0000ff;stroke-linecap:round;stroke-linejoin:round;stroke-opacity:1"
         id="g12885"
         transform="translate(55.324792,73.49912)">
        <g
           transform="translate(5.08,45.72)"
           id="g12883"
           style="stroke:#0000ff;stroke-opacity:1">
          <path
             inkscape:connector-curvature="0"
             d="M 558,-22.1 V 614 L 63,192 h 633"
             style="stroke-width:0.53830000000000000in;stroke:#0000ff;stroke-opacity:1"
             transform="scale(0.00508,-0.00508)"
             id="path12875" />
          <path
             inkscape:connector-curvature="0"
             d="M 129,536 V 59.9 L 186,6.3 H 684 L 743,63 v 485 l -50,50 H 192 l -63,-62 m 6,-473 602,488"
             style="stroke-width:0.53830000000000000in;stroke:#0000ff;stroke-opacity:1"
             transform="matrix(0.00508,0,0,-0.00508,3.31216,0)"
             id="path12877" />
          <path
             inkscape:connector-curvature="0"
             d="M 123,-15.8 V 472 h 337 l 47,-44 V -25.2 428 l 44,44 h 284 l 50,-50 V -22.1"
             style="stroke-width:0.53830000000000000in;stroke:#0000ff;stroke-opacity:1"
             transform="matrix(0.00508,0,0,-0.00508,7.18312,0)"
             id="path12879" />
          <path
             inkscape:connector-curvature="0"
             d="M 123,-15.8 V 472 h 337 l 47,-44 V -25.2 428 l 44,44 h 284 l 50,-50 V -22.1"
             style="stroke-width:0.53830000000000000in;stroke:#0000ff;stroke-opacity:1"
             transform="matrix(0.00508,0,0,-0.00508,11.6789,0)"
             id="path12881" />
        </g>
      </g>
      <path
         style="fill:none;stroke:#0000ff;stroke-width:0.26458300000000001px;stroke-linecap:butt;stroke-linejoin:miter;stroke-opacity:1"
         d="M 49.979402,120.31919 H 89.9794"
         id="path12887"
         inkscape:connector-curvature="0" />
    </g>
  </g>
  <rect
     style="fill:none;stroke:#ff0000;stroke-width:0.252646;stroke-miterlimit:4;stroke-dasharray:none"
     id="rect12889"
     width="5"
     height="57.599998"
     x="146.59801"
     y="27.69606" />
  <rect
     style="fill:none;stroke:#ff0000;stroke-width:0.203578;stroke-miterlimit:4;stroke-dasharray:none"
     id="rect12897"
     width="27.498531"
     height="5"
     x="146.59801"
     y="85.296059" />
  <rect
     y="90.296059"
     x="146.59801"
     height="5"
     width="27.498531"
     id="rect12899"
     style="fill:none;stroke:#ff0000;stroke-width:0.203578;stroke-miterlimit:4;stroke-dasharray:none" />
  <rect
     y="27.69606"
     x="151.59801"
     height="57.599998"
     width="5"
     id="rect12901"
     style="fill:none;stroke:#ff0000;stroke-width:0.252646;stroke-miterlimit:4;stroke-dasharray:none" />
  <rect
     style="fill:none;stroke:#ff0000;stroke-width:0.381729;stroke-miterlimit:4;stroke-dasharray:none"
     id="rect12903"
     width="11.414469"
     height="57.599998"
     x="151.59801"
     y="27.69606" />
  <rect
     y="27.69606"
     x="151.59801"
     height="57.599998"
     width="17.294399"
     id="rect12905"
     style="fill:none;stroke:#ff0000;stroke-width:0.469873;stroke-miterlimit:4;stroke-dasharray:none" />
</svg>
